<svg xmlns="http://www.w3.org/2000/svg" viewBox="0 0 256 256" focusable="false" color="var(--token-79a74529-78f8-4812-bcb8-ca2d2aed8e79, rgb(65, 105, 225))" style="user-select: none; width: 100%; height: 100%; display: inline-block; fill: var(--token-79a74529-78f8-4812-bcb8-ca2d2aed8e79, rgb(65, 105, 225)); color: var(--token-79a74529-78f8-4812-bcb8-ca2d2aed8e79, rgb(65, 105, 225)); flex-shrink: 0;"><g color="var(--token-79a74529-78f8-4812-bcb8-ca2d2aed8e79, rgb(65, 105, 225))" weight="duotone"><path d="M224,80V200a8,8,0,0,1-8,8H40a8,8,0,0,1-8-8V80a8,8,0,0,1,8-8H216A8,8,0,0,1,224,80Z" opacity="0.2"/><path d="M216,64H176a48,48,0,0,0-96,0H40A16,16,0,0,0,24,80V200a16,16,0,0,0,16,16H216a16,16,0,0,0,16-16V80A16,16,0,0,0,216,64ZM128,32a32,32,0,0,1,32,32H96A32,32,0,0,1,128,32Zm88,168H40V80H216Z"/></g></svg>